<svg preserveAspectRatio="none" width="100%" height="100%" overflow="visible" style="display: block;" viewBox="0 0 560 91.7309" fill="none" xmlns="http://www.w3.org/2000/svg">
<path id="slogna-horiontal-red" d="M548.654 91.7189C554.88 91.7189 560 86.5989 560 80.3133C560 74.0277 554.88 68.9669 548.654 68.9669C542.427 68.9669 537.248 74.0869 537.248 80.3133C537.248 86.5396 542.368 91.7189 548.654 91.7189ZM488.946 57.0938C488.946 39.5179 493.018 32.419 498.721 32.419C501.283 32.419 503.552 33.7591 506.113 36.1429V81.5348C504.194 82.2921 502.62 82.4074 501.224 82.4074C494.066 82.4074 488.946 75.539 488.946 57.0938ZM506.521 91.7189L529.392 85.6671C530.149 85.4925 530.613 85.1435 530.613 84.5048C530.613 82.6411 525.783 82.2361 525.783 73.2144V0.526817C525.783 0.293042 525.609 0.177801 525.375 0.237068L502.504 6.28888C501.747 6.46339 501.283 6.8124 501.283 7.45117C501.283 9.31478 506.113 9.71977 506.113 18.7415V29.2153C503.552 28.807 500.585 28.5765 498.257 28.5765C480.042 28.5765 468.462 42.7775 468.462 62.9118C468.462 80.7775 476.085 91.7189 491.448 91.7189C497.384 91.7189 501.049 89.5062 506.113 84.8505V91.4258C506.113 91.6596 506.288 91.7748 506.521 91.7156M426.211 60.1757C426.211 39.2841 428.829 32.4157 434.183 32.4157C440.001 32.4157 442.273 39.2841 442.273 60.1757C442.273 81.0673 440.004 87.9357 434.183 87.9357C428.829 87.9357 426.211 81.0113 426.211 60.1757ZM434.186 91.7189C451.469 91.7189 462.759 78.1599 462.759 60.179C462.759 42.198 451.469 28.5798 434.186 28.5798C416.903 28.5798 405.728 42.198 405.728 60.179C405.728 78.1599 417.368 91.7189 434.186 91.7189ZM363.477 60.1757C363.477 39.2841 366.095 32.4157 371.449 32.4157C377.267 32.4157 379.539 39.2841 379.539 60.1757C379.539 81.0673 377.27 87.9357 371.449 87.9357C366.095 87.9357 363.477 81.0113 363.477 60.1757ZM371.452 91.7189C388.735 91.7189 400.025 78.1599 400.025 60.179C400.025 42.198 388.735 28.5798 371.452 28.5798C354.169 28.5798 342.994 42.198 342.994 60.179C342.994 78.1599 354.634 91.7189 371.452 91.7189ZM302.373 91.7189C312.442 91.7189 323.38 88.9267 334.032 82.9309C334.147 82.8716 334.206 82.7564 334.206 82.5819V64.6569C334.206 52.9583 337.466 51.7367 337.466 50.1069C337.466 49.5241 337.117 49.0598 336.185 49.0598H310.578C309.647 49.0598 309.298 49.5241 309.298 50.1069C309.298 51.852 313.72 52.9583 313.72 64.6569V84.7352C311.217 86.7141 308.6 87.7019 304.174 87.7019C291.896 87.7019 285.321 75.7728 285.321 48.477C285.321 21.1813 291.662 10.0095 303.595 10.0095C310.463 10.0095 315.06 14.1417 327.163 27.1772C327.861 27.9345 328.619 27.7007 328.619 26.5944V11.8698C328.619 10.7635 328.154 10.0655 327.104 9.65722C321.925 7.73763 314.941 5.93328 305.979 5.93328C281.189 5.93328 262.447 22.8672 262.447 48.4738C262.447 75.9999 275.947 91.7123 302.37 91.7123M215.962 91.7189C230.627 91.7189 239.122 84.7352 239.122 71.2355C239.122 62.7966 234.351 55.757 225.04 51.9145L216.719 48.4803C211.306 46.2677 209.097 43.3603 209.097 39.0536C209.097 34.5131 212.646 32.419 216.314 32.419C221.727 32.419 225.86 36.3175 232.784 45.1647C233.541 46.0965 234.355 45.8035 234.355 44.5259V32.4223C234.355 31.665 234.006 31.0822 233.367 30.7332C229.817 29.3931 223.591 28.5798 218.003 28.5798C205.376 28.5798 195.716 36.2022 195.716 47.7856C195.716 55.408 199.44 62.5661 208.228 66.2341L217.19 69.958C223.242 72.4604 225.395 75.1965 225.395 79.8523C225.395 84.7418 221.961 87.9422 216.956 87.9422C210.845 87.9422 205.492 82.8222 197.52 72.1147C196.822 71.1269 195.95 71.4759 196.065 72.6975L197.286 88.0608C197.346 88.874 197.635 89.4009 198.449 89.6313C201.939 90.6784 207.296 91.7254 215.965 91.7254M185.64 32.824C195.242 29.9726 200.131 22.5247 200.131 13.3285C200.131 5.1233 195.011 0.00329261 188.785 0.00329261C182.559 0.00329261 177.379 5.1233 177.379 11.2936C177.379 17.464 182.384 22.7585 188.495 22.7585C190.474 22.7585 192.104 22.235 192.743 22.0012C193.032 21.886 193.266 22.1164 193.207 22.4655C192.334 26.1301 188.492 29.2153 185.061 31.3094C184.014 31.9482 184.537 33.173 185.644 32.824M150.377 52.2043C150.551 38.0033 153.287 32.419 157.42 32.419C161.552 32.419 164.054 38.4115 164.113 52.2043H150.38H150.377ZM158.407 91.7189C172.2 91.7189 179.941 83.3984 182.15 73.2704C182.44 71.9303 181.742 71.5253 180.754 72.3978C176.681 76.0065 171.443 77.5178 166.846 77.5178C157.011 77.5178 151.075 71.5253 150.436 56.218H180.814C181.512 56.218 182.094 55.8689 182.21 55.0557C182.325 54.1831 182.325 53.2513 182.325 52.3195C182.325 40.0414 173.596 28.5765 159.221 28.5765C143.393 28.5765 130.588 41.3222 130.588 61.3972C130.588 81.4723 142.866 91.7156 158.404 91.7156M93.4014 34.9774H100.21V74.9562C100.21 86.6548 95.7885 87.7578 95.7885 89.5062C95.7885 90.089 96.1375 90.5533 97.0693 90.5533H123.898C124.829 90.5533 125.178 90.089 125.178 89.5062C125.178 87.6426 119.884 86.6548 119.884 74.9562V34.9774H129.893C130.766 34.9774 131.233 34.5131 131.233 33.6965V31.1349C131.233 30.2624 130.769 29.7948 129.893 29.7948H122.445C119.828 29.7948 118.254 28.863 116.278 26.0709L114.589 23.6837C111.448 19.2617 109.874 15.304 109.874 11.9851C109.874 7.56312 112.726 5.23524 116.394 5.23524C121.049 5.23524 124.365 8.89992 131.293 16.4663C132.05 17.3389 132.807 16.9899 132.807 16.0021V2.62092C132.807 1.86362 132.458 1.39936 131.875 1.28082C128.616 0.349016 125.998 0 122.33 0C107.375 0 100.217 11.4056 100.217 23.9175V28.6885L93.0589 33.1697C92.1271 33.7525 92.3609 34.9741 93.408 34.9741M63.7218 11.3496C63.7218 17.6352 68.8418 22.7552 75.1274 22.7552C81.413 22.7552 86.477 17.6352 86.477 11.3496C86.477 5.06403 81.357 0.00329261 75.1307 0.00329261C68.9044 0.00329261 63.7251 5.1233 63.7251 11.3496M62.2105 90.5533H88.1661C89.0979 90.5533 89.447 90.089 89.447 89.5062C89.447 87.7611 85.025 86.6548 85.025 74.9562V28.5173C85.025 28.2835 84.8505 28.109 84.6167 28.1683L62.2698 33.0578C61.3972 33.2323 60.9297 33.6406 60.9297 34.3386C60.9297 36.1429 65.3517 36.492 65.3517 45.5104V74.9562C65.3517 86.6548 60.9297 87.7578 60.9297 89.5062C60.9297 90.089 61.2787 90.5533 62.2105 90.5533ZM1.28082 90.5533H51.3877C52.4348 90.5533 53.0768 90.0297 53.2513 88.9827L57.1498 67.7421C57.3243 66.7543 56.4517 66.346 55.6944 67.1593L44.4634 78.6242C38.6453 84.5607 36.6072 86.4803 29.9133 86.4803H25.7218V22.6992C25.7218 11.0006 30.1438 9.89758 30.1438 8.1492C30.1438 7.56641 29.7948 7.10215 28.863 7.10215H1.28082C0.349016 7.10215 0 7.56641 0 8.1492C0 9.89428 4.42197 11.0006 4.42197 22.6992V74.9595C4.42197 86.6581 0 87.7611 0 89.5095C0 90.0923 0.349016 90.5566 1.28082 90.5566" fill="var(--fill-0, #FD312E)"/>
</svg>
