<svg preserveAspectRatio="none" width="100%" height="100%" overflow="visible" style="display: block;" viewBox="0 0 69.9595 57.3606" fill="none" xmlns="http://www.w3.org/2000/svg">
<path id="Union" fill-rule="evenodd" clip-rule="evenodd" d="M56.1431 0C57.955 0.000178823 59.651 0.892954 60.6768 2.38647L68.9935 14.4983C70.4042 16.5532 70.2573 19.3006 68.6346 21.1926L39.2547 55.4419C37.0617 57.9984 33.1063 58.0003 30.91 55.4468L1.32988 21.051C-0.216006 19.2534 -0.435834 16.6667 0.784227 14.6338L7.9644 2.66968C8.95839 1.01361 10.7485 0.000175078 12.68 0H56.1431ZM35.0164 52.9187L47.6434 19.3823H21.1199L35.0164 52.9187ZM38.8128 51.3477L66.2359 19.3823H50.8489L38.8128 51.3477ZM30.9087 50.8435L17.8729 19.3823H3.85185L30.9087 50.8435ZM12.68 3.00049C11.8021 3.00066 10.9882 3.46118 10.5364 4.21387L3.35625 16.178C3.31631 16.2445 3.28077 16.3129 3.24761 16.3818H17.8863L23.6199 3.00049H12.68ZM50.7977 16.3818H66.6363C66.6007 16.319 66.563 16.2567 66.5215 16.1963L58.2037 4.08447C57.7374 3.40592 56.9664 3.00067 56.1431 3.00049H45.0457L50.7977 16.3818ZM21.1492 16.3818H47.5335L41.7815 3.00049H26.8841L21.1492 16.3818Z" fill="var(--fill-0, black)"/>
</svg>
