<svg width="96" height="96" viewBox="0 0 96 96" fill="none" xmlns="http://www.w3.org/2000/svg">
<g id="Type=Line black, name=Membership Coupon">
<g id="Union">
<path d="M65.0371 56.4033C65.6996 56.4035 66.2372 56.941 66.2373 57.6035V61.2998C66.2373 61.9624 65.6997 62.4998 65.0371 62.5C64.3744 62.5 63.8369 61.9625 63.8369 61.2998V57.6035C63.837 56.9409 64.3744 56.4033 65.0371 56.4033Z" fill="black"/>
<path fill-rule="evenodd" clip-rule="evenodd" d="M41.4785 36.6523C44.7804 36.6524 47.4608 39.3248 47.4609 42.626C47.4609 44.4665 46.6269 46.1106 45.3174 47.2061C49.2657 48.6731 52.1034 52.3371 52.1035 56.6982C52.1034 57.3609 51.566 57.8984 50.9033 57.8984H32.0586C31.3959 57.8984 30.8586 57.3609 30.8584 56.6982C30.8585 52.3386 33.6943 48.6751 37.6406 47.207C36.3301 46.1116 35.4951 44.4671 35.4951 42.626C35.4952 39.3248 38.1765 36.6523 41.4785 36.6523ZM41.4814 48.918C37.3259 48.918 33.9634 51.8064 33.3564 55.498H49.6055C48.9985 51.8066 45.6368 48.9182 41.4814 48.918ZM41.4785 39.0527C39.4975 39.0527 37.8956 40.6548 37.8955 42.626C37.8955 44.5973 39.4974 46.1992 41.4785 46.1992C43.4596 46.1991 45.0615 44.5972 45.0615 42.626C45.0614 40.6548 43.4595 39.0528 41.4785 39.0527Z" fill="black"/>
<path d="M65.0371 49.0107C65.6996 49.011 66.2372 49.5484 66.2373 50.2109V53.9072C66.2372 54.5698 65.6996 55.1072 65.0371 55.1074C64.3744 55.1074 63.837 54.5699 63.8369 53.9072V50.2109C63.837 49.5483 64.3744 49.0107 65.0371 49.0107Z" fill="black"/>
<path d="M65.0371 41.6172C65.6995 41.6174 66.2371 42.155 66.2373 42.8174V46.5137C66.2373 47.1763 65.6997 47.7137 65.0371 47.7139C64.3744 47.7139 63.8369 47.1764 63.8369 46.5137V42.8174C63.8371 42.1548 64.3745 41.6172 65.0371 41.6172Z" fill="black"/>
<path d="M65.0371 34.2246C65.6996 34.2248 66.2372 34.7623 66.2373 35.4248V39.1211C66.2373 39.7837 65.6997 40.3211 65.0371 40.3213C64.3744 40.3213 63.8369 39.7838 63.8369 39.1211V35.4248C63.837 34.7622 64.3744 34.2246 65.0371 34.2246Z" fill="black"/>
<path fill-rule="evenodd" clip-rule="evenodd" d="M75.6084 27.5928C78.0383 27.5929 80.0088 29.5632 80.0088 31.9932V64.0078C80.0085 66.4375 78.0382 68.4071 75.6084 68.4072H20.4004C17.9705 68.4072 16.0003 66.4376 16 64.0078V53.0605C16.0001 52.1442 16.7636 51.5119 17.5625 51.5117L17.7432 51.5068C19.5984 51.4129 21.0741 49.8785 21.0742 48C21.0741 46.061 19.5015 44.4894 17.5625 44.4893C16.7636 44.4891 16.0001 43.8558 16 42.9395V31.9932C16 29.5631 17.9703 27.5928 20.4004 27.5928H75.6084ZM20.4004 29.9932C19.2958 29.9932 18.4004 30.8886 18.4004 31.9932V42.1484C21.2682 42.5554 23.4735 45.0199 23.4736 48C23.4735 50.9801 21.2682 53.4446 18.4004 53.8516V64.0078C18.4007 65.1121 19.296 66.0078 20.4004 66.0078H63.8369V64.9961C63.8373 64.3336 64.3746 63.7969 65.0371 63.7969C65.6995 63.7971 66.237 64.3338 66.2373 64.9961V66.0078H75.6084C76.7127 66.0077 77.6081 65.1121 77.6084 64.0078V31.9932C77.6084 30.8887 76.7129 29.9933 75.6084 29.9932H66.2373V31.7285C66.2371 32.3909 65.6995 32.9275 65.0371 32.9277C64.3745 32.9277 63.8371 32.3911 63.8369 31.7285V29.9932H20.4004Z" fill="black"/>
</g>
</g>
</svg>
